<svg width="793" height="888" viewBox="0 0 793 888" fill="none" xmlns="http://www.w3.org/2000/svg">
<path d="M431.787 268.919C438.469 271.832 442.325 279.031 440.868 286.226L413.023 429.565V429.65L379.695 412.084C375.069 409.601 369.414 411.315 366.843 415.856L363.759 421.337C362.731 423.14 362.131 425.109 361.874 426.993L348.851 427.252C348.851 425.794 348.68 424.254 348.251 422.711L332.144 361.453L311.496 260.525C311.239 259.411 311.153 258.297 311.153 257.183C311.153 249.984 315.78 243.474 322.805 241.246C332.059 238.333 341.826 243.903 344.053 253.326L378.667 389.641L410.453 279.201C412.338 272.176 418.764 267.635 425.618 267.635C427.674 267.635 429.73 268.065 431.787 268.919Z" fill="#FFCC99"/>
<path d="M283.908 420.138V400.263C283.908 392.894 288.535 386.299 295.474 383.811L334.358 369.871L332.144 361.453L269.772 383.811C262.832 386.299 258.205 392.894 258.205 400.263V420.138L286.222 507.616V573.674H311.924V507.616L283.908 420.138Z" fill="white"/>
<path d="M411.052 507.616L433.329 465.807C439.154 454.926 435.042 441.302 424.075 435.476L413.023 429.65L379.695 412.084C375.069 409.601 369.414 411.315 366.843 415.856L363.759 421.337C362.731 423.14 362.131 425.109 361.874 426.993L348.851 427.252C348.851 425.794 348.68 424.254 348.251 422.711L334.358 369.871L295.474 383.811C288.535 386.299 283.908 392.894 283.908 400.263V420.138L311.924 507.616V573.674H389.034V533.32L411.052 507.616Z" fill="#FFCC99"/>
<path d="M282.537 632.105V588.753C282.537 580.44 289.306 573.674 297.616 573.674H286.221H271.913C263.603 573.674 256.834 580.44 256.834 588.753V632.105C256.834 640.414 263.603 647.098 271.913 647.098H297.616C289.306 647.098 282.537 640.414 282.537 632.105Z" fill="white"/>
<path d="M378.667 389.641L344.053 253.326C341.826 243.903 332.059 238.333 322.805 241.246C315.78 243.474 311.153 249.984 311.153 257.183C311.153 258.297 311.239 259.411 311.496 260.525L332.144 361.453" stroke="#231F20" stroke-width="9" stroke-miterlimit="10"/>
<path d="M413.024 429.565L440.868 286.226C442.325 279.031 438.469 271.832 431.787 268.919C429.73 268.065 427.674 267.635 425.618 267.635C418.764 267.635 412.338 272.177 410.453 279.201L378.667 389.641" stroke="#231F20" stroke-width="9" stroke-miterlimit="10"/>
<path d="M393.574 461.092L380.551 451.154L367.871 441.387C363.331 437.959 361.189 432.393 361.874 426.993C362.131 425.109 362.731 423.14 363.759 421.337L366.843 415.856C369.414 411.315 375.069 409.601 379.695 412.084L413.023 429.65L424.075 435.476C435.042 441.302 439.154 454.926 433.329 465.807L411.053 507.616L389.034 533.32V573.674H286.222V507.616L258.205 420.138V400.263C258.205 392.894 262.832 386.299 269.772 383.811L332.144 361.453L348.251 422.711C348.68 424.254 348.851 425.794 348.851 427.252C348.851 435.731 342.854 443.36 334.115 444.899L309.954 449.27C301.472 450.814 293.161 445.928 290.42 437.874L282.28 414.657" stroke="#231F20" stroke-width="9" stroke-miterlimit="10"/>
<path d="M380.552 451.154L343.54 494.336" stroke="#231F20" stroke-width="9" stroke-miterlimit="10"/>
<rect x="248" y="573" width="169" height="72" rx="16" fill="white" stroke="#231F20" stroke-width="8"/>
<rect x="268" y="577" width="145" height="64" rx="10" fill="#66CC99"/>
</svg>
